Coordinates
version=1
nRows=21
nColumns=22
inDegrees=yes

Units are S.I. units (second, meters, Newtons, ...)
If the header above contains a line with 'inDegrees', this indicates whether rotational values are in degrees (yes) or radians (no).

endheader
time	pelvis_tilt	pelvis_list	pelvis_rotation	pelvis_tx	pelvis_ty	pelvis_tz	hip_flexion_r	hip_adduction_r	hip_rotation_r	knee_angle_r	ankle_angle_r	subtalar_angle_r	hip_flexion_l	hip_adduction_l	hip_rotation_l	knee_angle_l	ankle_angle_l	subtalar_angle_l	lumbar_extension	lumbar_bending	lumbar_rotation
      3.64000000	     -6.82597383	     -9.33291730	     -4.09577848	      1.03664809	      0.97284609	      0.29203816	     10.12169513	     14.48038917	     -0.94750219	    -22.74364450	     20.19545959	     -6.72624322	     38.43840193	    -12.48437479	     -2.21006201	    -30.07470309	      8.39977258	      7.19178328	     -2.75021403	     11.83984136	      9.07427136
      3.65000000	     -6.86372048	     -9.43651830	     -4.15698811	      1.04448695	      0.97221085	      0.29137146	      9.52526846	     14.51341636	     -0.89224013	    -22.55001123	     20.43220705	     -6.58468037	     38.39303733	    -12.40636886	     -2.23978116	    -28.01829065	      8.11093258	      7.69952885	     -2.71054440	     11.97034898	      9.02973110
      3.66000000	     -6.89732300	     -9.53286951	     -4.22706297	      1.05239398	      0.97154334	      0.29067691	      8.93099365	     14.53309484	     -0.83668219	    -22.37882195	     20.66301648	     -6.41903445	     38.31085874	    -12.31182427	     -2.22609813	    -26.08073421	      8.02016625	      8.19719201	     -2.66747504	     12.08917658	      8.99179889
      3.67000000	     -6.92548825	     -9.62464047	     -4.30762745	      1.06037579	      0.97084697	      0.28994398	      8.33969395	     14.54135110	     -0.77853942	    -22.23390395	     20.88669133	     -6.22676922	     38.19532833	    -12.20729287	     -2.15854152	    -24.28573673	      8.12149702	      8.67679796	     -2.62232077	     12.20188948	      8.96386271
      3.68000000	     -6.95568810	     -9.70250163	     -4.39017550	      1.06845458	      0.97010699	      0.28916020	      7.75797586	     14.52696955	     -0.72681431	    -22.11144586	     21.11871205	     -6.03168294	     38.05956610	    -12.08314989	     -2.02783649	    -22.65376606	      8.36578449	      9.08948624	     -2.55839869	     12.29846966	      8.92985462
      3.69000000	     -6.97481293	     -9.78904644	     -4.49209920	      1.07661302	      0.96933918	      0.28837945	      7.17802868	     14.52002838	     -0.64782631	    -22.03075165	     21.33400396	     -5.79218641	     37.89760832	    -11.97903455	     -1.83451814	    -21.21435127	      8.76797902	      9.46615990	     -2.50112959	     12.40108787	      8.91529835
      3.70000000	     -6.99324602	     -9.86719999	     -4.60990286	      1.08485193	      0.96854114	      0.28757192	      6.62015971	     14.49733343	     -0.56258187	    -22.00417581	     21.52912411	     -5.50841299	     37.71843710	    -11.87835839	     -1.59315107	    -19.97325263	      9.21618033	      9.77391565	     -2.43532495	     12.49249996	      8.92252892
      3.71000000	     -7.01945977	     -9.93828691	     -4.73618215	      1.09319186	      0.96769237	      0.28673950	      6.08978925	     14.46237174	     -0.46395186	    -22.02748663	     21.72534074	     -5.20295530	     37.54200327	    -11.78337515	     -1.32308571	    -18.95474726	      9.68794210	      9.98589183	     -2.34495765	     12.57388358	      8.93369701
      3.72000000	     -7.05973465	    -10.00151025	     -4.87922470	      1.10161072	      0.96678393	      0.28590659	      5.60346760	     14.41731002	     -0.33949417	    -22.11935820	     21.92205633	     -4.88247480	     37.38267606	    -11.70264589	     -1.06482439	    -18.17712965	     10.13162907	     10.11558417	     -2.22787239	     12.64529414	      8.94261788
      3.73000000	     -7.10831570	    -10.05023405	     -5.03413312	      1.11011896	      0.96584716	      0.28504691	      5.15126937	     14.35055739	     -0.19272200	    -22.26953864	     22.11009049	     -4.48201690	     37.23205681	    -11.62723691	     -0.84928109	    -17.63540451	     10.48152262	     10.19237383	     -2.08802166	     12.70049240	      8.97931568
      3.74000000	     -7.20238186	    -10.07765933	     -5.21214898	      1.11869416	      0.96483324	      0.28419873	      4.78163387	     14.26077666	     -0.02446454	    -22.49265858	     22.27789612	     -4.03620287	     37.13313467	    -11.55726717	     -0.68505314	    -17.32904095	     10.66301731	     10.20078413	     -1.88146820	     12.73071647	      9.04092605
      3.75000000	     -7.34275961	    -10.08588106	     -5.39804696	      1.12732263	      0.96374217	      0.28332666	      4.50244871	     14.14808753	      0.14806234	    -22.79228010	     22.41538476	     -3.54500544	     37.09941035	    -11.48570849	     -0.56763567	    -17.26036970	     10.64686333	     10.13051925	     -1.60797719	     12.74292465	      9.09469885
      3.76000000	     -7.52443760	    -10.07249640	     -5.59454019	      1.13599876	      0.96259857	      0.28246534	      4.30134535	     14.01957937	      0.35921961	    -23.15712571	     22.56429108	     -3.07722691	     37.12851951	    -11.41764271	     -0.52002849	    -17.41181035	     10.36126185	      9.98064282	     -1.27249888	     12.73226441	      9.12557787
      3.77000000	     -7.74871270	    -10.01963641	     -5.79238962	      1.14471690	      0.96142764	      0.28156280	      4.18050341	     13.85038457	      0.57824982	    -23.57674538	     22.69222397	     -2.56888983	     37.22836881	    -11.32801921	     -0.52607910	    -17.76488546	      9.75022138	      9.73762878	     -0.87113187	     12.68002072	      9.17034486
      3.78000000	     -7.99227132	     -9.90244595	     -5.98950724	      1.15345543	      0.96029140	      0.28061330	      4.13836446	     13.61914579	      0.82981661	    -24.08977080	     22.78213229	     -2.08621035	     37.35717023	    -11.19530555	     -0.59148074	    -18.25307590	      8.81902940	      9.44088455	     -0.43411452	     12.56135199	      9.17124205
      3.79000000	     -8.26503240	     -9.75211968	     -6.15134400	      1.16224230	      0.95917158	      0.27957446	      4.15602355	     13.35268930	      1.04114527	    -24.63309251	     22.87387405	     -1.47250650	     37.57212957	    -11.03076102	     -0.67525423	    -18.91206038	      7.64306307	      9.03051701	      0.06095791	     12.40428887	      9.16204144
      3.80000000	     -8.51302041	     -9.54380100	     -6.27226984	      1.17104533	      0.95819142	      0.27842858	      4.20099653	     13.02907908	      1.26226793	    -25.24775826	     22.90575271	     -0.79832695	     37.78408925	    -10.80433576	     -0.76234725	    -19.65562062	      6.33988941	      8.57832056	      0.54267277	     12.18110677	      9.08776532
      3.81000000	     -8.70871296	     -9.22232183	     -6.33769604	      1.17990978	      0.95738385	      0.27713772	      4.26000424	     12.57273190	      1.40216471	    -25.95156412	     22.94326439	     -0.20360701	     37.96925114	    -10.45995614	     -0.92058524	    -20.48097395	      5.07549001	      8.14164425	      0.99243882	     11.81877685	      8.97744075
      3.82000000	     -8.85307021	     -8.85628254	     -6.33399946	      1.18876615	      0.95677465	      0.27570765	      4.32822865	     12.07039099	      1.52505235	    -26.73625588	     22.90999987	      0.56320041	     38.12075995	    -10.03700861	     -1.02129521	    -21.34666957	      3.96735861	      7.58976275	      1.39184627	     11.39766238	      8.80018746
      3.83000000	     -8.89629509	     -8.37626094	     -6.25053422	      1.19767144	      0.95642344	      0.27410855	      4.37156072	     11.42694523	      1.54511621	    -27.62988909	     22.87418059	      1.21586163	     38.16884147	     -9.46232339	     -1.13310883	    -22.22975026	      3.15432108	      7.07454682	      1.69631810	     10.82619983	      8.55502954
      3.84000000	     -8.86575401	     -7.88606972	     -6.10132588	      1.20656617	      0.95633723	      0.27236699	      4.38982300	     10.76163058	      1.52112858	    -28.58823203	     22.69825975	      2.18869104	     38.14690377	     -8.82825011	     -1.19011697	    -23.12850077	      2.61788157	      6.35201605	      1.91363064	     10.23524491	      8.29915196
